General
Unique ID                                : 208519199996323114744982911065842637700 (0x9CDF564DD749D713B5FB98CA3E39DB84)
Complete name                            : D:The.Big.Bang.Theory.S06.720pThe.Big.Bang.Theory.S06E17.720p.WEB-DL.Rus.Eng.mkv
Format                                   : Matroska
Format version                           : Version 2
File size                                : 660 MiB
Duration                                 : 20mn 18s
Overall bit rate                         : 4 540 Kbps
Encoded date                             : UTC 2013-02-25 14:51:29
Writing application                      : mkvmerge v5.8.0 ('No Sleep / Pillow') built on Sep  2 2012 15:37:04
Writing library                          : libebml v1.2.3 + libmatroska v1.3.0

Video
ID                                       : 1
Format                                   : AVC
Format/Info                              : Advanced Video Codec
Format profile                           : High@L3.1
Format settings, CABAC                   : No
Format settings, ReFrames                : 2 frames
Codec ID                                 : V_MPEG4/ISO/AVC
Duration                                 : 20mn 18s
Bit rate                                 : 3 873 Kbps
Width                                    : 1 280 pixels
Height                                   : 720 pixels
Display aspect ratio                     : 16:9
Frame rate mode                          : Constant
Frame rate                               : 23.976 fps
Color space                              : YUV
Chroma subsampling                       : 4:2:0
Bit depth                                : 8 bits
Scan type                                : Progressive
Bits/(Pixel*Frame)                       : 0.175
Stream size                              : 563 MiB (85%)
Title                                    : Video
Language                                 : English
Default                                  : Yes
Forced                                   : Yes
Color primaries                          : BT.709
Transfer characteristics                 : BT.709
Matrix coefficients                      : BT.709

Audio #1
ID                                       : 2
Format                                   : AC-3
Format/Info                              : Audio Coding 3
Mode extension                           : CM (complete main)
Format settings, Endianness              : Big
Codec ID                                 : A_AC3
Duration                                 : 20mn 18s
Bit rate mode                            : Constant
Bit rate                                 : 192 Kbps
Channel(s)                               : 2 channels
Channel positions                        : Front: L R
Sampling rate                            : 48.0 KHz
Bit depth                                : 16 bits
Compression mode                         : Lossy
Stream size                              : 27.9 MiB (4%)
Title                                    : Russian
Language                                 : Russian
Default                                  : Yes
Forced                                   : Yes

Audio #2
ID                                       : 3
Format                                   : AC-3
Format/Info                              : Audio Coding 3
Mode extension                           : CM (complete main)
Format settings, Endianness              : Big
Codec ID                                 : A_AC3
Duration                                 : 20mn 18s
Bit rate mode                            : Constant
Bit rate                                 : 384 Kbps
Channel(s)                               : 6 channels
Channel positions                        : Front: L C R, Side: L R, LFE
Sampling rate                            : 48.0 KHz
Bit depth                                : 16 bits
Compression mode                         : Lossy
Stream size                              : 55.8 MiB (8%)
Title                                    : English 5.1
Language                                 : English
Default                                  : No
Forced                                   : No

